<?xml version="1.0" encoding="utf-8"?>
<!-- Generator: Adobe Illustrator 15.0.2, SVG Export Plug-In . SVG Version: 6.00 Build 0)  -->
<!DOCTYPE svg PUBLIC "-//W3C//DTD SVG 1.1//EN" "http://www.w3.org/Graphics/SVG/1.1/DTD/svg11.dtd">
<svg version="1.1" id="logo" xmlns="http://www.w3.org/2000/svg" xmlns:xlink="http://www.w3.org/1999/xlink" x="0px" y="0px"
	 width="800px" height="800px" viewBox="0 0 800 800" enable-background="new 0 0 800 800" xml:space="preserve">
<path id="border" fill="none" stroke="#FFFFFF" stroke-width="14" stroke-miterlimit="10" d="M723.59961,580v-26.66699
	c-11.0459,0-20-8.9541-20-20s8.9541-20,20-20v-26.66602c-11.0459,0-20-8.9541-20-20s8.9541-20,20-20V420c-11.0459,0-20-8.9541-20-20
	s8.9541-20,20-20v-26.6665c-11.0459,0-20-8.9541-20-20s8.9541-20,20-20V286.6665c-11.0459,0-20-8.9541-20-20s8.9541-20,20-20V220
	c-11.0459,0-20-8.9541-20-20H96.40039c0,11.0459-8.9541,20-20,20v26.6665c11.0459,0,20,8.9541,20,20s-8.9541,20-20,20v26.66699
	c11.0459,0,20,8.9541,20,20s-8.9541,20-20,20V380c11.0459,0,20,8.9541,20,20s-8.9541,20-20,20v26.66699c11.0459,0,20,8.9541,20,20
	s-8.9541,20-20,20v26.66602c11.0459,0,20,8.9541,20,20s-8.9541,20-20,20V580c11.0459,0,20,8.9541,20,20h607.19922
	C703.59961,588.9541,712.55371,580,723.59961,580z"/>
<path id="git_x5F_logo" fill="none" stroke="#FFFFFF" stroke-width="14" stroke-linejoin="round" stroke-miterlimit="10" d="
	M297.65039,259.60498l-22.91406,22.91357l32.27441,32.27441c2.16943-0.73242,4.49121-1.13525,6.9082-1.13525
	c11.93018,0,21.60107,9.67139,21.60107,21.60107c0,2.41797-0.40283,4.73877-1.13525,6.90869l36.25,36.25
	c2.16992-0.73242,4.4917-1.13525,6.90869-1.13525c11.92969-0.00098,21.60107,9.6709,21.60107,21.60107
	s-9.67041,21.60107-21.60059,21.60107c-11.93066,0-21.60205-9.6709-21.60107-21.60107c0-2.41699,0.40283-4.73877,1.13428-6.90918
	l-33.57178-33.5708v84.74707c7.11914,3.53223,12.01562,10.87207,12.01465,19.3584c0,11.92871-9.6709,21.60059-21.60059,21.60059
	c-11.93066,0-21.60205-9.67188-21.60205-21.60156c0-8.48535,4.89551-15.8252,12.01465-19.35742l0.00049-88.53369
	c-7.11914-3.5332-12.01514-10.87109-12.01514-19.35791c0-2.4165,0.40332-4.73926,1.13574-6.9082l-32.27441-32.27441
	l-87.65527,87.65527c-8.94775,8.94775-8.94775,23.58984,0,32.53711L297.6499,540.39551c8.94775,8.94824,23.58984,8.94824,32.53809,0
	l124.12646-124.12695c8.94824-8.94727,8.94824-23.58936,0-32.53711L330.18799,259.60498
	C321.23975,250.65625,306.59766,250.65625,297.65039,259.60498z"/>
<g id="details">
	<g>
		
			<line fill="none" stroke="#FFFFFF" stroke-width="14" stroke-linecap="round" stroke-miterlimit="10" x1="525.44434" y1="252.89355" x2="544.3457" y2="233.99219"/>
		
			<line fill="none" stroke="#FFFFFF" stroke-width="14" stroke-linecap="round" stroke-miterlimit="10" x1="525.44434" y1="308.22949" x2="599.68164" y2="233.99219"/>
		
			<line fill="none" stroke="#FFFFFF" stroke-width="14" stroke-linecap="round" stroke-miterlimit="10" x1="525.44434" y1="363.56543" x2="655.01758" y2="233.99219"/>
		
			<line fill="none" stroke="#FFFFFF" stroke-width="14" stroke-linecap="round" stroke-miterlimit="10" x1="525.44434" y1="418.90137" x2="673.91895" y2="270.42627"/>
		
			<line fill="none" stroke="#FFFFFF" stroke-width="14" stroke-linecap="round" stroke-miterlimit="10" x1="525.44434" y1="474.2373" x2="673.91895" y2="325.76172"/>
		
			<line fill="none" stroke="#FFFFFF" stroke-width="14" stroke-linecap="round" stroke-miterlimit="10" x1="525.44434" y1="529.57324" x2="673.91895" y2="381.09766"/>
		
			<line fill="none" stroke="#FFFFFF" stroke-width="14" stroke-linecap="round" stroke-miterlimit="10" x1="544.34668" y1="566.00684" x2="673.91895" y2="436.43359"/>
		
			<line fill="none" stroke="#FFFFFF" stroke-width="14" stroke-linecap="round" stroke-miterlimit="10" x1="599.68164" y1="566.00684" x2="673.91895" y2="491.76953"/>
		
			<line fill="none" stroke="#FFFFFF" stroke-width="14" stroke-linecap="round" stroke-miterlimit="10" x1="655.01758" y1="566.00684" x2="673.91895" y2="547.10547"/>
	</g>
</g>
</svg>
